<svg width="24" height="24" viewBox="0 0 24 24" fill="none" xmlns="http://www.w3.org/2000/svg">
<g id="bx-package (1) 1">
<path id="Vector" d="M22 8.00062C22.0097 7.93095 22.0097 7.86028 22 7.79062V7.71062C21.9828 7.6548 21.9593 7.60112 21.93 7.55062C21.917 7.52181 21.9002 7.4949 21.88 7.47061L21.78 7.34062L21.7 7.28062L21.58 7.19062L12.58 2.19062C12.428 2.10285 12.2555 2.05664 12.08 2.05664C11.9045 2.05664 11.732 2.10285 11.58 2.19062L2.58 7.19062L2.49 7.26062L2.38 7.34062C2.35095 7.37331 2.32732 7.41045 2.31 7.45061C2.27801 7.47931 2.25097 7.5131 2.23 7.55062C2.20403 7.59449 2.18387 7.64155 2.17 7.69062C2.16441 7.72371 2.16441 7.75752 2.17 7.79062C2.10125 7.8499 2.04367 7.92102 2 8.00062V16.0006C2.0013 16.1788 2.05019 16.3534 2.14161 16.5064C2.23303 16.6593 2.36367 16.7851 2.52 16.8706L11.52 21.8706C11.5613 21.8947 11.6049 21.9148 11.65 21.9306H11.75C11.9143 21.9705 12.0857 21.9705 12.25 21.9306H12.35L12.49 21.8706L21.49 16.8706C21.6445 16.7838 21.7731 16.6575 21.8627 16.5046C21.9523 16.3517 21.9997 16.1778 22 16.0006V8.00062ZM12 11.8706L5.06 8.00062L7.82 6.48062L14.65 10.3806L12 11.8706ZM12 4.15062L18.94 8.00062L16.7 9.25062L9.87 5.34062L12 4.15062ZM4 9.70061L11 13.6206V19.3006L4 15.4106V9.70061ZM13 19.3006V13.6206L16 11.9406V15.0006L18 14.0006V10.8206L20 9.71062V15.4106L13 19.3006Z" fill="#030401"/>
</g>
</svg>
