<svg width="41" height="40" viewBox="0 0 41 40" fill="none" xmlns="http://www.w3.org/2000/svg">
<circle cx="20.25" cy="20" r="20" fill="#FFEFE4"/>
<path d="M26.0045 21.9992C27.2466 21.9992 28.2534 23.0061 28.2534 24.2481V25.1665C28.2534 25.7399 28.0742 26.2989 27.7408 26.7654C26.1949 28.9287 23.6706 30.0004 20.2504 30.0004C16.8294 30.0004 14.3064 28.9282 12.7643 26.7639C12.4323 26.298 12.2539 25.7401 12.2539 25.1681V24.2481C12.2539 23.0061 13.2608 21.9992 14.5028 21.9992H26.0045ZM20.2504 10.0039C23.0118 10.0039 25.2504 12.2425 25.2504 15.0039C25.2504 17.7653 23.0118 20.0039 20.2504 20.0039C17.4889 20.0039 15.2504 17.7653 15.2504 15.0039C15.2504 12.2425 17.4889 10.0039 20.2504 10.0039Z" fill="#F57625"/>
</svg>
