<svg width="24" height="24" viewBox="0 0 24 24" fill="none" xmlns="http://www.w3.org/2000/svg">
<g id="vuesax/linear/more">
<g id="more">
<path id="Vector" d="M13.8427 4.95653C13.818 3.85681 12.8981 2.97721 11.7984 3.00187C10.6986 3.02653 9.81903 3.94648 9.84369 5.0462C9.86836 6.14593 10.7883 7.02552 11.888 7.00086C12.9878 6.9762 13.8673 6.05625 13.8427 4.95653Z" fill="#030401"/>
<path id="Vector_2" d="M14.1562 18.9536C14.1315 17.8539 13.2116 16.9743 12.1118 16.9989C11.0121 17.0236 10.1325 17.9436 10.1572 19.0433C10.1818 20.143 11.1018 21.0226 12.2015 20.9979C13.3012 20.9733 14.1808 20.0533 14.1562 18.9536Z" fill="#030401"/>
<path id="Vector_3" d="M13.9999 11.9556C13.9753 10.8558 13.0553 9.97623 11.9556 10.0009C10.8559 10.0256 9.97626 10.9455 10.0009 12.0452C10.0256 13.145 10.9455 14.0245 12.0453 13.9999C13.145 13.9752 14.0246 13.0553 13.9999 11.9556Z" fill="#030401"/>
</g>
</g>
</svg>
